<mxfile host="65bd71144e">
    <diagram id="Y6pyNk_9VMkp1u8MjLGN" name="第 1 页">
        <mxGraphModel dx="605" dy="376" grid="1" gridSize="10" guides="1" tooltips="1" connect="1" arrows="1" fold="1" page="1" pageScale="1" pageWidth="827" pageHeight="1169" math="0" shadow="0">
            <root>
                <mxCell id="0"/>
                <mxCell id="1" parent="0"/>
                <mxCell id="2" value="CleanArchitecture.SharedKernel" style="html=1;rounded=1;" vertex="1" parent="1">
                    <mxGeometry x="40" y="40" width="240" height="40" as="geometry"/>
                </mxCell>
                <mxCell id="4" value="CleanArchitecture.Core" style="html=1;rounded=1;" vertex="1" parent="1">
                    <mxGeometry x="360" y="40" width="240" height="40" as="geometry"/>
                </mxCell>
                <mxCell id="5" value="CleanArchitecture.Infrastructure" style="html=1;rounded=1;" vertex="1" parent="1">
                    <mxGeometry x="40" y="160" width="240" height="40" as="geometry"/>
                </mxCell>
                <mxCell id="7" value="" style="endArrow=open;endSize=12;dashed=1;html=1;rounded=1;entryX=1;entryY=0.5;entryDx=0;entryDy=0;exitX=0;exitY=0.5;exitDx=0;exitDy=0;" edge="1" parent="1" source="4" target="2">
                    <mxGeometry width="160" relative="1" as="geometry">
                        <mxPoint x="230" y="210" as="sourcePoint"/>
                        <mxPoint x="390" y="210" as="targetPoint"/>
                    </mxGeometry>
                </mxCell>
                <mxCell id="8" value="" style="endArrow=open;endSize=12;dashed=1;html=1;rounded=1;entryX=0.25;entryY=1;entryDx=0;entryDy=0;exitX=0.25;exitY=0;exitDx=0;exitDy=0;" edge="1" parent="1" source="5" target="2">
                    <mxGeometry width="160" relative="1" as="geometry">
                        <mxPoint x="370" y="70" as="sourcePoint"/>
                        <mxPoint x="290" y="70" as="targetPoint"/>
                    </mxGeometry>
                </mxCell>
                <mxCell id="9" value="" style="endArrow=open;endSize=12;dashed=1;html=1;rounded=1;entryX=0.5;entryY=1;entryDx=0;entryDy=0;exitX=0.75;exitY=0;exitDx=0;exitDy=0;" edge="1" parent="1" source="5" target="4">
                    <mxGeometry width="160" relative="1" as="geometry">
                        <mxPoint x="110" y="170" as="sourcePoint"/>
                        <mxPoint x="110" y="90" as="targetPoint"/>
                        <Array as="points">
                            <mxPoint x="220" y="120"/>
                            <mxPoint x="480" y="120"/>
                        </Array>
                    </mxGeometry>
                </mxCell>
                <mxCell id="10" value="CleanArchitecture.Web" style="html=1;rounded=1;" vertex="1" parent="1">
                    <mxGeometry x="360" y="160" width="240" height="40" as="geometry"/>
                </mxCell>
                <mxCell id="11" value="" style="endArrow=open;endSize=12;dashed=1;html=1;rounded=1;entryX=1;entryY=0.5;entryDx=0;entryDy=0;exitX=0;exitY=0.5;exitDx=0;exitDy=0;" edge="1" parent="1" source="10" target="5">
                    <mxGeometry width="160" relative="1" as="geometry">
                        <mxPoint x="370" y="70" as="sourcePoint"/>
                        <mxPoint x="290" y="70" as="targetPoint"/>
                    </mxGeometry>
                </mxCell>
            </root>
        </mxGraphModel>
    </diagram>
</mxfile>